<svg id="monday_blac" xmlns="http://www.w3.org/2000/svg" xmlns:xlink="http://www.w3.org/1999/xlink" viewBox="0 0 899.33 165.33"><defs><style>.cls-1,.cls-2{fill:none;}.cls-2{clip-path:url(#clip-path);}.cls-3{fill:#ff3d57;}.cls-4{fill:#ffcb00;}.cls-5{fill:#00d647;}.cls-6,.cls-7{fill:#333;}.cls-7{fill-rule:evenodd;}.cls-8{clip-path:url(#clip-path-2);}</style><clipPath id="clip-path"><line class="cls-1" x1="-1.9" y1="2674.41" x2="1278.1" y2="2674.41"/></clipPath><clipPath id="clip-path-2"><line class="cls-2" x1="1278.1" y1="-5220.59" x2="-1.9" y2="-5220.59"/></clipPath></defs><title>Artboard 1 copy 3</title><path class="cls-3" d="M17.36,125.34A17,17,0,0,1,3,99.35L33.55,50.56a17,17,0,1,1,28.77,18L31.77,117.37A17,17,0,0,1,17.36,125.34Z"/><path class="cls-4" d="M70,125.34a17,17,0,0,1-14.37-26L86.2,50.56a17,17,0,1,1,28.77,18L84.42,117.37A17,17,0,0,1,70,125.34Z"/><ellipse class="cls-5" cx="122.66" cy="108.75" rx="17" ry="16.59"/><path class="cls-6" d="M883.37,96.29c5.36,0,8.56,3.76,8.56,9.92v21.12h7.28v-21.6c0-10.48-5-16.56-14.4-16.56-3.68,0-9.52,1-13,7.68a11.9,11.9,0,0,0-9.76-7.28,17,17,0,0,0-4.08-.24c-3,.24-8.32,2.08-10.32,6.24V90h-7.28v37.36h7.28V107.17c0-7.84,5.2-10.88,10.4-10.88,4.88,0,8.08,3.68,8.08,9.84v21.2h7.28V107.17C873.45,100.93,877.21,96.21,883.37,96.29Zm-69.74,24.8a12.09,12.09,0,0,0,12.32-12.56c0-7.52-5.6-12.24-12.32-12.24S801.3,101,801.3,108.53A12.09,12.09,0,0,0,813.62,121.09Zm0,7c-10.64,0-19.52-7.76-19.52-19.6S803,89.17,813.62,89.17s19.6,7.52,19.6,19.36S824.26,128.13,813.62,128.13Zm-57-19.6c0,11.84,9.12,19.6,19.76,19.6a19.47,19.47,0,0,0,14.48-6.08l-5.6-4.64a12.56,12.56,0,0,1-21.44-8.88c0-7.52,5.84-12.24,12.56-12.24a12.52,12.52,0,0,1,8.88,3.52l5.52-4.64a19.35,19.35,0,0,0-14.4-6C765.72,89.17,756.6,96.69,756.6,108.53Z"/><path class="cls-7" d="M752,44.32H726.33l-18,46-17.87-46H664.74L696,117l-19.43,48.05H702ZM597.82,84.74c0,11.62,10.24,19.26,20.3,19.26,9.89,0,19.6-7.11,19.6-19.26S628,65.48,618.11,65.48C608.05,65.48,597.82,73.12,597.82,84.74Zm39.9,40.59v-9.19c-5.2,7.81-17.35,10.76-23.59,10.76-20.64,0-41.29-16.13-41.29-42.16s20.64-42.16,41.29-42.16c5.2,0,17.35,1.73,23.59,10.76v-9h23.94v81Zm-71.69,0H542.09V115.27c-4,7.46-13.7,11.8-23.77,11.8-20.82,0-39.21-16.48-39.21-42,0-26,18.39-42.5,39.21-42.5,10.06,0,19.78,4.16,23.77,11.62V.25H566ZM541.57,84.57c0-12.14-8.85-19.26-18.74-19.26-10.24,0-18.74,7.63-18.74,19.26,0,12,8.5,19.6,18.74,19.6C532.89,104.17,541.57,96.19,541.57,84.57ZM419.92,82.48c0-12.32,6.42-16.48,14.92-16.48,8.15,0,14.05,5.38,14.05,16.13v43.2H473V76.93c0-23.07-11.45-34.35-29.67-34.35-9.54,0-19.08,5.38-23.42,13.53V44.32H395.8v81h24.11Zm-73.08,44.24c-22.9,0-42-16.65-42-42.16s19.08-42,42-42S389,59.06,389,84.57,369.74,126.72,346.84,126.72Zm0-23.59c10.06,0,18.39-7.29,18.39-18.56,0-10.93-8.33-18.39-18.39-18.39a17.93,17.93,0,0,0-18.22,18.39C328.62,95.84,336.95,103.13,346.84,103.13ZM261.62,66C268.73,66,275,71.55,275,82.14v43.2h23.94v-46c0-24.46-12-36.78-31.23-36.78-5.72,0-16.48,1.73-24.29,14.4-4.51-9.37-13.18-14.23-26-14.23a23.18,23.18,0,0,0-21.16,13.36V44.32H172.1v81h24.11V82.48C196.21,70.17,203,66,210.27,66c6.94,0,13.18,5.38,13.36,15.61v43.72h24.11V82.48C247.74,70.69,254,66,261.62,66Z"/><path class="cls-6" d="M734.44,121.17a5.25,5.25,0,0,0,10.48,0,5.24,5.24,0,0,0-10.48,0Z"/><g class="cls-8"><circle class="cls-5" cx="578.6" cy="102.91" r="31.5"/></g></svg>